<?xml version="1.0" encoding="utf-8"?>
<!-- Generator: Adobe Illustrator 22.1.0, SVG Export Plug-In . SVG Version: 6.00 Build 0)  -->
<svg version="1.1" id="Laag_1" xmlns="http://www.w3.org/2000/svg" xmlns:xlink="http://www.w3.org/1999/xlink" x="0px" y="0px"
	 viewBox="0 0 16 16" style="enable-background:new 0 0 16 16;" xml:space="preserve">
<style type="text/css">
	.st0{fill:#FFFFFF;}
</style>
<g>
	<g>
		<path class="st0" d="M15.8,7c-0.3-2-1.2-3.6-2.8-4.9c-1.6-1.3-3.4-1.9-5.4-1.8c-0.2,0-0.3,0-0.5,0c-0.1,0-0.3,0-0.4,0.1
			c0,0-0.1,0-0.1,0C5.2,0.7,3.9,1.2,2.8,2.2C1.3,3.6,0.4,5.3,0.2,7.4c0,0.3-0.1,0.7,0,1c0.3-0.7,0.6-1.3,1-2
			c0.1-0.1,0.1-0.1,0.1-0.2c0.1-0.2,0.2-0.3,0.3-0.5c0,0,0.1-0.1,0-0.1c-0.1-0.2,0-0.3,0.1-0.4c0.2-0.1,0.3,0,0.4,0.1
			c0,0.1,0,0.2,0,0.3C2,5.7,2,5.7,1.9,5.8c-0.1,0-0.1,0.1-0.1,0.1C1.5,6.3,1.3,6.7,1.1,7.1C1,7.3,0.9,7.5,0.8,7.7
			C1,7.7,1.1,7.6,1.3,7.6c0.1,0,0.2,0,0.3-0.1c1.4-1.4,3.2-2,5.1-1.8c1.4,0.2,2.5,0.8,3.6,1.6c0.3,0.2,0.5,0.5,0.7,0.7c0,0,0,0,0,0
			c0,0.1,0.1,0.1,0.1,0.1c0.5,0.7,0.9,1.4,1.2,2.2c0.2,0.9,0.3,1.8,0.1,2.7c0,0,0,0.1,0,0.1c0.2,0.1,0.2,0.3,0.3,0.5
			c0.3-0.7,0.6-1.3,0.9-1.9c0-0.1,0-0.1,0-0.2c0-0.2,0-0.3,0.2-0.4c0.2,0,0.3,0,0.4,0.2c0.1,0.2,0,0.3-0.2,0.4
			c-0.1,0-0.1,0.1-0.2,0.2c-0.4,0.8-0.8,1.6-1.2,2.5c0,0,0,0.1,0,0.1c0,0,0.1-0.1,0.1-0.1c0.9-0.7,1.7-1.6,2.2-2.7
			c0.4-0.7,0.6-1.4,0.7-2.2c0,0,0,0,0-0.1c0,0,0-0.1,0-0.1c0-0.1,0.1-0.2,0-0.3C15.9,8.4,15.9,7.7,15.8,7z"/>
		<path class="st0" d="M12.3,6.8C12.3,6.8,12.2,6.8,12.3,6.8C12.2,6.8,12.3,6.8,12.3,6.8z"/>
		<path class="st0" d="M14.8,10.3C14.8,10.3,14.8,10.3,14.8,10.3C14.8,10.3,14.8,10.3,14.8,10.3z"/>
		<path class="st0" d="M6,1.5C6,1.5,5.9,1.5,6,1.5C5.9,1.5,6,1.5,6,1.5z"/>
	</g>
	<path class="st0" d="M10.8,12.1c-0.2-0.9-0.8-1.6-1.5-2.1C8.6,9.3,7.6,8.9,6.7,8.5c-0.5-0.2-1-0.3-1.5-0.4c-0.1,0-0.2,0-0.3,0
		c-0.2,0-0.5,0-0.7,0c-1.1,0.1-2,0.6-2.6,1.6c-0.3,0.6-0.4,1.3-0.2,1.9c0,0.1,0,0.2,0.1,0.2c0.1,0.2,0.2,0.4,0.3,0.6
		c0.6,0.7,1.3,0.9,2.2,1c0.9,0.1,1.6,0.4,2.2,1.1c0.2,0.2,0.3,0.4,0.5,0.5c0.7,0.6,1.5,0.8,2.4,0.5C10.5,15.1,11.2,13.5,10.8,12.1z
		 M5.5,11.1c-0.1,0.2-0.3,0.3-0.5,0.3l-0.3-0.1l-0.1,0.3c-0.1,0.2-0.3,0.3-0.5,0.3c-0.2-0.1-0.3-0.3-0.3-0.5L4,11.1l-0.3-0.1
		c-0.2-0.1-0.3-0.3-0.3-0.5c0.1-0.2,0.3-0.3,0.5-0.3l0.3,0.1l0.1-0.3c0.1-0.2,0.3-0.3,0.5-0.3s0.3,0.3,0.3,0.5l-0.1,0.3l0.3,0.1
		C5.4,10.7,5.6,10.9,5.5,11.1z M8.8,13.9c-0.5,0-0.9-0.4-0.9-0.9c0-0.5,0.4-0.9,0.9-0.9c0.5,0,0.9,0.4,0.9,0.9
		C9.7,13.5,9.3,13.9,8.8,13.9z"/>
</g>
</svg>
